<svg xmlns="http://www.w3.org/2000/svg" id="svg16" width="100" height="100" viewBox="0 0 100 100"><path d="M43.3 13.5L19.5 31.7H8c-3 0-5.5 2.4-5.5 5.5v25.7c0 3 2.4 5.5 5.5 5.5h11.6l23.7 18.2c4.1 3.2 10.2.2 10.2-5V18.5c-.1-5.3-6.1-8.2-10.2-5z" id="path2"/><path d="M89.3 50l7.2-7.2c1.2-1.2 1.2-3.2 0-4.5l-3.4-3.4c-1.2-1.2-3.2-1.2-4.5 0l-7.2 7.2-7.2-7.2c-1.2-1.2-3.2-1.2-4.5 0l-3.4 3.4c-1.2 1.2-1.2 3.2 0 4.5l7.2 7.2-7.2 7.2c-1.2 1.2-1.2 3.2 0 4.5l3.4 3.4c1.2 1.2 3.2 1.2 4.5 0l7.2-7.2 7.2 7.2c1.2 1.2 3.2 1.2 4.5 0l3.4-3.4c1.2-1.2 1.2-3.2 0-4.5z" id="path4"/></svg>