<svg xmlns="http://www.w3.org/2000/svg" id="svg18" width="100" height="100" viewBox="0 0 100 100"><path d="M72.2 33.2c-2-1.6-5-1.4-6.7.7-1.7 2.1-1.3 5.1.8 6.8 2.7 2.2 4.4 5.6 4.4 9.3 0 4-1.9 7.5-4.9 9.7-1.9 1.4-2.2 4.2-.7 6l.4.4c1.6 1.9 4.6 2.3 6.5.8 5-3.9 8.2-10.1 8.2-16.9 0-6.8-3.1-12.8-8-16.8z" id="path2"/><path d="M83.1 19.8c-2-1.6-4.9-1.2-6.6.7-1.6 2-1.4 5 .6 6.6C83.7 32.6 88 40.8 88 50s-4.3 17.5-10.9 22.9c-2 1.6-2.2 4.6-.6 6.6s4.6 2.4 6.6.8c8.8-7.1 14.5-18 14.5-30.2-.1-12.3-5.7-23.2-14.5-30.3z" id="path4"/><path d="M44.3 12.5L20 31.2H8.1c-3.1 0-5.6 2.5-5.6 5.6v26.4c0 3.1 2.5 5.6 5.6 5.6H20l24.4 18.7c4.3 3.3 10.4.3 10.4-5.2V17.6c0-5.3-6.2-8.4-10.5-5.1z" id="path6"/></svg>