<svg xmlns="http://www.w3.org/2000/svg" id="svg8" viewBox="0 0 115.419 15.367" height="58.08" width="436.228"><style id="style13476">.letter{stroke:#f3ca9e;stroke-dasharray: 100;stroke-dashoffset: 100;animation: draw-letter 2s forwards}@keyframes draw-letter{from{stroke-dashoffset: 100}to{stroke-dashoffset: 0}}</style><defs id="defs2"><clipPath id="clip-v"><path id="clip-v-path" d="M129.743 125.172h14.198l-6.121 12.744-1.843-.006z" stroke-width=".265"/></clipPath><clipPath id="clip-r"><path id="clip-r-path" d="M149.224 132.131h3.331l4.118 5.2h-3.399z" stroke-width=".265"/></clipPath></defs><g transform="translate(-99.144 -123.655)" id="layer2"><path d="M109.519 127.43c-1.077-1.199-2.42-1.794-3.919-1.606-2.57.322-4.154 2.409-4.328 5.103-.173 2.673 1.804 5.706 4.49 5.645.982-.022 2.734-.406 3.97-1.866" id="c1" pathLength="100" class="letter" fill="none" stroke="#f3ca9e" stroke-width="1.587" stroke-dasharray="100"/><path class="letter" pathLength="100" id="c2" d="M168.237 127.43c-1.076-1.199-2.419-1.794-3.918-1.606-2.571.322-4.154 2.409-4.328 5.103-.173 2.673 1.804 5.706 4.49 5.645.981-.022 2.734-.406 3.969-1.866" fill="none" stroke="#f3ca9e" stroke-width="1.587" stroke-dasharray="100"/><path style="animation-delay:0.5s" d="M116.1 125.172v12.16" pathLength="100" class="letter" fill="none" stroke="#f3ca9e" stroke-width="1.587" stroke-dasharray="100"/><path style="animation-delay:1s" d="M125.819 125.172v12.16" pathLength="100" class="letter" fill="none" stroke="#f3ca9e" stroke-width="1.587" stroke-dasharray="100"/><path style="animation-delay:0.5s" d="M125.119 131.21h-8.262" pathLength="100" class="letter" fill="none" stroke="#f3ca9e" stroke-width="1.587" stroke-dasharray="100"/><path style="animation-delay:0.25s" d="M130.847 124.735l6.051 11.294 6.137-11.258" clip-path="url(#clip-v)" pathLength="100" class="letter" fill="none" stroke="#f3ca9e" stroke-width="1.587" stroke-dasharray="100"/><path class="letter" pathLength="100" d="M174.795 125.172v12.16" style="animation-delay:0.5s" fill="none" stroke="#f3ca9e" stroke-width="1.587" stroke-dasharray="100"/><path class="letter" pathLength="100" d="M183.815 131.21h-8.262" style="animation-delay:0.5s" fill="none" stroke="#f3ca9e" stroke-width="1.587" stroke-dasharray="100"/><path class="letter" pathLength="100" d="M184.515 125.172v12.16" style="animation-delay:1s" fill="none" stroke="#f3ca9e" stroke-width="1.587" stroke-dasharray="100"/><path style="animation-delay:0.25s" d="M190.594 131.21h11.104" pathLength="100" class="letter" fill="none" stroke="#f3ca9e" stroke-width="1.587" stroke-dasharray="100"/><path style="animation-delay:0.5s" d="M190.594 136.407h11.104" pathLength="100" class="letter" fill="none" stroke="#f3ca9e" stroke-width="1.587" stroke-dasharray="100"/><path d="M190.594 126.013h11.104" id="e1" pathLength="100" class="letter" fill="none" stroke="#f3ca9e" stroke-width="1.587" stroke-dasharray="100"/><path style="animation-delay:0.3s;animation-duration:2.5s" d="M212.446 126.722c-.818-.62-1.868-1.01-2.817-.943-1.221.086-2.26.863-2.262 2.218-.022 1.956 1.408 2.372 2.852 3.218 1.015.595 2.216 1.403 2.227 2.948-.08 1.568-1.223 2.398-2.312 2.507-1.215.12-2.44-.557-3.098-1.09" pathLength="98" class="letter" fill="none" stroke="#f3ca9e" stroke-width="1.587" stroke-dasharray="100"/><path d="M148.64 137.331l.046-11.318h2.623c1.484 0 2.753.84 2.787 2.646.034 1.806-1.21 2.858-2.787 2.858l-1.89.024" id="r1" pathLength="99" class="letter" fill="none" stroke="#f3ca9e" stroke-width="1.587" stroke-dasharray="100"/><path style="animation-delay:1s" d="M150.634 131.827l4.868 6.21" clip-path="url(#clip-r)" pathLength="85" class="letter" fill="none" stroke="#f3ca9e" stroke-width="1.587" stroke-dasharray="100"/></g></svg>