<?xml-stylesheet type="text/css" href="../styles/svg.css"?>
<svg id="pixels" xmlns="http://www.w3.org/2000/svg" viewBox="0 0 239.637 239.637" height="905.714" width="905.714"><path fill="#e9e4e0" d="M119.374 24.395h23.813v23.813h-23.813z"/><path fill="#c67a7e" d="M166.999 72.02h23.813v23.813h-23.813z"/><path fill="#e9eae2" d="M166.999 48.207h23.813V72.02h-23.813z"/><path fill="#f3c1c4" d="M190.812 48.207h23.813V72.02h-23.813z"/><path fill="#d9c4c3" d="M143.187 72.02H167v23.813h-23.813z"/><path fill="#d8a0ab" d="M119.374 72.02h23.813v23.813h-23.813z"/><path fill="#dcddd8" d="M143.187 95.832H167v23.813h-23.813z"/><path fill="#d1d6d2" d="M119.374 119.645h23.813v23.813h-23.813z"/><path fill="#db9da8" d="M190.812 119.645h23.813v23.813h-23.813z"/><path fill="#dac5cc" d="M95.562 143.457h23.813v23.813H95.562z"/><path fill="#2a2641" d="M71.749 119.645h23.813v23.813H71.749z"/><path fill="#c98ea8" d="M47.937 95.832H71.75v23.813H47.937z"/><path fill="#e0c5cc" d="M24.124 95.832h23.813v23.813H24.124z"/><path fill="#d9c1d1" d="M71.749 72.02h23.813v23.813H71.749z"/><path fill="#955d78" d="M24.124 143.457h23.813v23.813H24.124z"/><path fill="#abb2c0" d="M47.937 191.082H71.75v23.813H47.937z"/><path fill="#ecd8d7" d="M143.187 191.082H167v23.813h-23.813z"/><path fill="#da888a" d="M119.374 191.082h23.813v23.813h-23.813z"/><path fill="#ede4df" d="M166.999 167.27h23.813v23.813h-23.813z"/><path fill="#4c2739" d="M190.812 167.27h23.813v23.813h-23.813z"/><path fill="#170d0c" d="M23.558 24.395h95.816V72.02H23.558z"/></svg>