<?xml-stylesheet type="text/css" href="../styles/svg.css"?>
<svg id="circle-triangle" xmlns="http://www.w3.org/2000/svg" viewBox="0 0 281.662 241.267" height="911.877" width="1064.551"><path id="circle3" d="M142.48 9.257A114.134 114.134 0 0 0 28.346 123.39 114.134 114.134 0 0 0 142.48 237.526 114.134 114.134 0 0 0 256.615 123.39 114.134 114.134 0 0 0 142.48 9.257zm0 19.243a92.753 94.891 0 0 1 92.753 94.891 92.753 94.891 0 0 1-92.753 94.891 92.753 94.891 0 0 1-92.752-94.89A92.753 94.891 0 0 1 142.48 28.5z"/><path id="circle2" d="M142.48 34.229a89.162 89.162 0 0 0-89.162 89.162 89.162 89.162 0 0 0 89.162 89.162 89.162 89.162 0 0 0 89.163-89.162A89.162 89.162 0 0 0 142.48 34.23zm0 22.3a66.862 66.862 0 0 1 66.862 66.862 66.862 66.862 0 0 1-66.862 66.862 66.862 66.862 0 0 1-66.861-66.862A66.862 66.862 0 0 1 142.48 56.53z"/><path id="circle1" d="M142.48 61.821a61.57 61.57 0 0 0-61.57 61.57 61.57 61.57 0 0 0 61.57 61.57 61.57 61.57 0 0 0 61.57-61.57 61.57 61.57 0 0 0-61.57-61.57zm0 21.545a40.026 40.026 0 0 1 40.026 40.025 40.026 40.026 0 0 1-40.026 40.026 40.026 40.026 0 0 1-40.025-40.026 40.026 40.026 0 0 1 40.025-40.025z"/><g id="triangles" fill="#3776d2"><path d="M212.071 2.856l-69.59 120.535h139.181l-17.418-30.17h-71.686L228.4 31.14zM142.48 123.391L74.424 241.267h32.66l34.002-58.894 34.003 58.894h35.447z"/><path d="M71.24 0L53.517 30.698l36.098 62.524H17.419L0 123.392h142.48z"/></g></svg>