<?xml-stylesheet type="text/css" href="../styles/svg.css"?>
<svg id="cross-heart" xmlns="http://www.w3.org/2000/svg" width="499.51001" height="442.078" viewBox="-10 -10 152.16 136.97">
  <filter id="blur">
    <feGaussianBlur in="Source" stdDeviation="3" />
    <feMerge>
        <feMergeNode />
        <feMergeNode in="SourceGraphic" />
    </feMerge>
  </filter>
  <path id="heart" d="M49.334 25.252C68.864-1.976 100.936 14.4 87.452 50.106c-4.917 13.02-19.332 17.96-37.74 39.402C28.559 65.54 3.275 45.898 8.423 30.598 15.5 9.57 38.143 5.1 49.333 25.253z"/><path id="cross" d="M45.285 32.49L72.164 1.458c1.196-.81 2.111-1.902 4.75-1.269l8.969 5.927c.621-.183 2.398 4.403.701 6.519l-26.702 30.95 71.135 59.322c1.233 1.739 1.634 3.685.379 6.046l-5.999 6.388c-2.081 2.32-4.61 1.808-6.515.614L45.51 58.47 33.89 71.327c-1.509 1.625-2.498 1.1-3.58.31l-7.052-5.518c-1.32-1.353-3.532-2.274-1.088-5.445l9.972-13.525L3.634 23.344C-2.098 18.57.386 15.703 1.518 13.87l7.11-6.222c3.308-1.843 5.485-.295 7.827.758z" fill="#59fff9"/>
</svg>